<?xml version="1.0" standalone="no"?><!DOCTYPE svg PUBLIC "-//W3C//DTD SVG 1.1//EN" "http://www.w3.org/Graphics/SVG/1.1/DTD/svg11.dtd"><svg t="1694244460251" class="icon" viewBox="0 0 1024 1024" version="1.1" xmlns="http://www.w3.org/2000/svg" p-id="62933" xmlns:xlink="http://www.w3.org/1999/xlink" width="200" height="200"><path d="M532.164406 559.273455c37.38817-56.003487 174.390605-257.279967 225.720571-300.575678-65.429297 153.54355-194.31871 311.550576-271.458065 462.179739 142.489885 47.575396 207.052742-8.795672 285.662419-74.435015l-77.874516-14.703212c98.905361-31.953232 92.000103-20.13815 126.63142-67.31971a332.765211 332.765211 0 0 0 58.655316-140.651983l-64.379067 7.902977c20.531986-11.76257 66.295736-32.478347 73.542319-44.030871 19.429245-30.850491 70.470398-326.043742 71.074281-387.4034-196.734238 1.78539-511.01541 406.701367-533.779134 600.206148-22.842491 194.555011-247.617856 488.540499 106.1782-41.168995z m293.224071 109.3814C884.043794 703.154893 918.963924 747.658368 918.963924 797.255455c0 267.598472-851.919899 267.598472-851.919899 0 0-122.876849 193.504782-178.013897 293.749185-193.110946-2.363016 16.541114-7.509141 33.397298-14.230609 50.673573-68.895054 12.392708-231.102997 58.340248-231.102997 142.437373 0 202.142919 755.062486 202.142919 755.062485 0 0-35.471501-32.425835-69.315146-86.013794-96.542345a745.190328 745.190328 0 0 0 40.880182-32.031999z" fill="#10b981" p-id="62934"></path></svg>